<?xml version="1.0" encoding="UTF-8" standalone="no"?>
<svg
   xmlns:dc="http://purl.org/dc/elements/1.1/"
   xmlns:cc="http://creativecommons.org/ns#"
   xmlns:rdf="http://www.w3.org/1999/02/22-rdf-syntax-ns#"
   xmlns:svg="http://www.w3.org/2000/svg"
   xmlns="http://www.w3.org/2000/svg"
   width="396"
   height="136"
   viewBox="0 0 818.05334 281.05334"
   xml:space="preserve"
   id="svg2"
   version="1.1"><metadata
     id="metadata8"><rdf:RDF><cc:Work
         rdf:about=""><dc:format>image/svg+xml</dc:format><dc:type
           rdf:resource="http://purl.org/dc/dcmitype/StillImage" /></cc:Work></rdf:RDF></metadata><defs
     id="defs6"><clipPath
       id="clipPath20"
       clipPathUnits="userSpaceOnUse"><path
         id="path18"
         d="M 0,0 H 6135 V 2107.85 H 0 Z" /></clipPath></defs><g
     transform="matrix(1.3333333,0,0,-1.3333333,0,281.05333)"
     id="g10"><g
       transform="scale(0.1)"
       id="g12"><g
         id="g14"><g
           clip-path="url(#clipPath20)"
           id="g16"><path
             id="path22"
             style="fill:#ffffff;fill-opacity:1;fill-rule:nonzero;stroke:none"
             d="m 828.508,1339.41 122.254,378.97 122.188,-378.97 z m 62.683,442.58 -231.054,-683.93 h 89.297 l 55.468,164.32 h 290.628 l 56.48,-164.32 h 89.36 l -231.08,683.93 H 891.191" /><path
             id="path24"
             style="fill:#ffffff;fill-opacity:1;fill-rule:nonzero;stroke:none"
             d="m 1352.27,1678.34 h 86.25 v 124.238 h -86.25 z" /><path
             id="path26"
             style="fill:#ffffff;fill-opacity:1;fill-rule:nonzero;stroke:none"
             d="m 1352.27,1098.06 h 86.25 v 500.125 h -86.25 z" /><path
             id="path28"
             style="fill:#ffffff;fill-opacity:1;fill-rule:nonzero;stroke:none"
             d="m 1962.23,1098.06 -165.32,251.67 162.23,248.45 h -89.32 l -119.14,-183.8 -119.08,183.8 h -89.39 l 161.25,-248.45 -164.3,-251.67 h 91.41 l 120.11,185.9 121.2,-185.9 h 90.35" /><path
             id="path30"
             style="fill:#ffffff;fill-opacity:1;fill-rule:nonzero;stroke:none"
             d="m 3143.65,1098.06 h 85.23 l -23.63,683.93 h -111.92 l -197.2,-528.83 -197.11,528.83 h -111.97 l -23.59,-683.93 h 85.21 l 13.32,554.56 174.61,-466.19 h 119.14 l 174.55,466.19 13.36,-554.56" /><path
             id="path32"
             style="fill:#ffffff;fill-opacity:1;fill-rule:nonzero;stroke:none"
             d="m 3612.28,1202.81 c -38.03,-24.61 -86.27,-41.03 -129.43,-41.03 -61.59,0 -70.88,20.52 -70.88,71.89 0,50.29 19.55,66.74 72.91,66.74 h 127.4 z m 13.3,-104.75 h 72.89 v 348.17 c 0,106.8 -47.21,162.25 -189.94,162.25 -53.36,0 -101.21,-5.84 -148.38,-18.17 l 9.26,-68.79 c 38.98,8.19 85.76,13.05 133.98,13.05 81.14,0 108.89,-21.58 108.89,-84.24 v -78.03 h -133.5 c -100.68,0 -153.04,-37.01 -153.04,-140.7 0,-88.32 39.02,-143.75 132.48,-143.75 60.56,0 118.08,16.41 162.2,47.25 l 5.16,-37.04" /><path
             id="path34"
             style="fill:#ffffff;fill-opacity:1;fill-rule:nonzero;stroke:none"
             d="m 4050.58,1608.48 c -49.32,-20.57 -100.64,-51.35 -137.64,-80.1 l -5.09,69.8 h -75.02 v -500.12 h 86.27 v 345.07 c 41.07,28.76 95.45,63.71 142.75,86.28 l -11.27,79.07" /><path
             id="path36"
             style="fill:#ffffff;fill-opacity:1;fill-rule:nonzero;stroke:none"
             d="m 4282.65,1161.78 c -43.14,0 -99.65,8.2 -142.73,20.52 l -11.33,-67.79 c 40.06,-15.39 107.83,-26.66 159.2,-26.66 142.73,0 172.5,47.25 172.5,144.75 0,99.63 -11.29,117.13 -155.06,153.04 -84.2,20.55 -85.23,30.79 -85.23,86.25 0,45.2 10.29,62.68 84.19,62.68 41.12,0 96.59,-6.19 138.62,-14.43 l 6.19,70.9 c -41.08,11.28 -93.44,17.44 -141.72,17.44 -131.43,0 -172.5,-42.11 -172.5,-134.53 0,-103.7 11.29,-129.38 135.51,-160.2 100.66,-24.63 104.76,-30.84 104.76,-84.22 0,-53.38 -13.34,-67.75 -92.4,-67.75" /><path
             id="path38"
             style="fill:#ffffff;fill-opacity:1;fill-rule:nonzero;stroke:none"
             d="m 4863.43,1386.66 h -214.67 v 41.11 c 0,69.79 28.77,108.85 109.91,108.85 81.13,0 104.76,-39.06 104.76,-108.85 z m -104.76,221.82 c -148.89,0 -196.16,-83.19 -196.16,-186.9 v -149.96 c 0,-112.93 50.36,-183.77 198.23,-183.77 62.63,0 129.39,11.27 176.6,28.73 l -11.29,68.83 c -54.45,-14.43 -108.89,-23.63 -158.14,-23.63 -97.6,0 -119.15,31.81 -119.15,110.9 v 42.11 h 297.86 v 104.74 c 0,103.71 -40.1,188.95 -187.95,188.95" /><path
             id="path40"
             style="fill:#ffffff;fill-opacity:1;fill-rule:nonzero;stroke:none"
             d="m 5059.6,1678.34 h 86.3086 v 124.238 H 5059.6 Z" /><path
             id="path42"
             style="fill:#ffffff;fill-opacity:1;fill-rule:nonzero;stroke:none"
             d="m 5059.6,1098.06 h 86.3086 v 500.125 H 5059.6 Z" /><path
             id="path44"
             style="fill:#ffffff;fill-opacity:1;fill-rule:nonzero;stroke:none"
             d="m 5396.4,1814.88 -86.19,-12.3 v -704.52 h 86.19 v 716.82" /><path
             id="path46"
             style="fill:#ffffff;fill-opacity:1;fill-rule:nonzero;stroke:none"
             d="m 5647.05,1814.88 -86.31,-12.3 v -704.52 h 86.31 v 716.82" /><path
             id="path48"
             style="fill:#ffffff;fill-opacity:1;fill-rule:nonzero;stroke:none"
             d="m 5837.63,1427.77 c 0,69.79 28.75,108.85 109.9,108.85 81.12,0 104.75,-39.06 104.75,-108.85 v -41.11 h -214.65 z m 297.81,-112.98 v 104.74 c 0,103.71 -40.03,188.95 -187.91,188.95 -148.92,0 -196.13,-83.19 -196.13,-186.9 v -149.96 c 0,-112.93 50.27,-183.77 198.15,-183.77 62.65,0 129.41,11.27 176.6,28.73 l -11.25,68.83 c -54.44,-14.43 -108.85,-23.63 -158.11,-23.63 -97.6,0 -119.16,31.81 -119.16,110.9 v 42.11 h 297.81" /><path
             id="path50"
             style="fill:#ffffff;fill-opacity:1;fill-rule:nonzero;stroke:none"
             d="m 2146.37,903.629 h -58.91 V 510.512 c -61.99,-32.5 -149.37,-56.883 -189.96,-56.883 -34.55,0 -53.87,13.203 -53.87,49.793 v 400.207 h -58.9 V 510.512 c 0,-68.012 27.42,-111.723 104.65,-111.723 59.88,0 148.3,29.492 201.11,54.84 l 4.1,-44.707 h 51.78 v 494.707" /><path
             id="path52"
             style="fill:#ffffff;fill-opacity:1;fill-rule:nonzero;stroke:none"
             d="M 2634.65,809.18 V 408.922 h 58.94 v 393.109 c 0,68.051 -27.44,111.739 -104.68,111.739 -59.89,0 -148.3,-29.461 -201.12,-54.79 l -4.04,44.649 h -51.86 V 408.922 h 59.01 v 393.109 c 61.93,32.5 149.3,56.949 189.9,56.949 34.53,0 53.85,-13.261 53.85,-49.8" /><path
             id="path54"
             style="fill:#ffffff;fill-opacity:1;fill-rule:nonzero;stroke:none"
             d="m 2847.95,797.219 h 58.9297 v 108.68 H 2847.95 Z" /><path
             id="path56"
             style="fill:#ffffff;fill-opacity:1;fill-rule:nonzero;stroke:none"
             d="m 2847.95,408.922 h 58.9297 V 738.871 H 2847.95 Z" /><path
             id="path58"
             style="fill:#ffffff;fill-opacity:1;fill-rule:nonzero;stroke:none"
             d="M 3237.83,450.602 3085.5,903.629 h -59.99 l 167.67,-494.707 h 90.37 l 167.58,494.707 h -59.87 L 3237.83,450.602" /><path
             id="path60"
             style="fill:#ffffff;fill-opacity:1;fill-rule:nonzero;stroke:none"
             d="m 3586.69,736.031 c 0,83.278 33.5,127 125.9,127 92.46,0 121.9,-43.722 121.9,-127 v -44.722 h -247.8 z m 295.59,-309.801 -10.2,47.731 c -48.71,-13.242 -105.66,-23.359 -156.4,-23.359 -98.54,0 -128.99,37.597 -128.99,125.957 v 61.972 h 305.77 v 95.449 c 0,101.579 -40.69,179.79 -179.87,179.79 -139.14,0 -184.8,-78.211 -184.8,-179.79 V 578.551 c 0,-107.629 44.59,-179.762 183.77,-179.762 59.94,0 125,11.191 170.72,27.441" /><path
             id="path62"
             style="fill:#ffffff;fill-opacity:1;fill-rule:nonzero;stroke:none"
             d="m 4247.05,913.77 c -46.78,-17.231 -99.59,-50.739 -152.41,-85.329 l -3,75.188 h -52.82 V 408.922 h 58.85 v 355.527 c 47.79,31.492 104.69,69.039 156.47,91.41 l -7.09,57.911" /><path
             id="path64"
             style="fill:#ffffff;fill-opacity:1;fill-rule:nonzero;stroke:none"
             d="m 4663.75,533.898 c 0,92.473 -8.17,115.793 -153.44,152.332 -91.37,23.418 -95.41,30.512 -95.41,98.571 0,53.769 12.15,76.16 98.49,76.16 40.69,0 98.56,-6.121 138.15,-14.199 l 6.09,49.777 c -38.61,11.172 -94.45,17.231 -140.19,17.231 -121.86,0 -161.45,-44.711 -161.45,-126.969 0,-90.403 10.16,-120.84 134.1,-150.301 112.76,-26.441 114.75,-33.531 114.75,-104.648 0,-62.954 -18.32,-80.25 -109.73,-80.25 -36.58,0 -88.38,7.148 -131.03,20.308 l -10.14,-47.73 c 36.62,-15.258 95.47,-25.391 145.27,-25.391 132.04,0 164.54,45.723 164.54,135.109" /><path
             id="path66"
             style="fill:#ffffff;fill-opacity:1;fill-rule:nonzero;stroke:none"
             d="m 4806.71,797.219 h 58.9492 v 108.68 H 4806.71 Z" /><path
             id="path68"
             style="fill:#ffffff;fill-opacity:1;fill-rule:nonzero;stroke:none"
             d="m 4806.71,408.922 h 58.9492 V 738.871 H 4806.71 Z" /><path
             id="path70"
             style="fill:#ffffff;fill-opacity:1;fill-rule:nonzero;stroke:none"
             d="m 5280.15,459.898 c -29.45,-9.117 -49.32,-10.347 -76.66,-10.347 -50.82,0 -56.85,18.32 -56.85,62.008 v 341.293 h 128.63 l 6.11,50.777 h -134.74 v 107.951 l -58.99,-8.09 v -99.861 h -95.45 v -50.777 h 95.45 V 505.449 c 0,-78.211 33.56,-106.66 111.74,-106.66 35.61,0 63.55,4.203 91.93,15.43 l -11.17,45.679" /><path
             id="path72"
             style="fill:#ffffff;fill-opacity:1;fill-rule:nonzero;stroke:none"
             d="m 5681.54,691.309 h -247.91 v 44.722 c 0,83.278 33.55,127 125.97,127 92.43,0 121.94,-43.722 121.94,-127 z M 5559.6,913.77 c -139.12,0 -184.88,-78.211 -184.88,-179.79 V 578.551 c 0,-107.629 44.67,-179.762 183.91,-179.762 59.88,0 124.88,11.191 170.62,27.441 l -10.19,47.731 c -48.71,-13.242 -105.63,-23.359 -156.39,-23.359 -98.55,0 -129.04,37.597 -129.04,125.957 v 61.972 h 305.8 v 95.449 c 0,101.579 -40.72,179.79 -179.83,179.79" /><path
             id="path74"
             style="fill:#ffffff;fill-opacity:1;fill-rule:nonzero;stroke:none"
             d="m 5663.37,996.23 -17.59,50.55 c -51.06,-19.59 -104.81,-37.41 -150.39,-52.132 l 16.3,-47.066 c 46.1,12.5 101.68,28.789 151.68,48.648" /><path
             id="path76"
             style="fill:#ffffff;fill-opacity:1;fill-rule:nonzero;stroke:none"
             d="m 2276.5,1281.5 135.43,-78.2 c 2.84,-1.62 5.82,-2.15 8.48,-2.15 14.84,0.71 28.22,12.5 29.04,12.66 l 2.72,2.05 0.39,3.38 c 0.06,0.21 0.6,4.49 0.6,10.14 -0.03,4.14 -0.27,8.96 -1.44,13.76 -1.21,4.67 -3.15,10.04 -8.95,13.58 l -135.43,78.18 c 0,0 -2.28,1.33 -6.23,3.62 2.07,1.19 4.14,2.4 6.23,3.61 l 135.43,78.18 c 5.77,3.54 7.74,8.93 8.95,13.58 1.13,4.82 1.44,9.63 1.44,13.77 0,5.64 -0.54,9.92 -0.58,10.13 l -0.41,3.42 -2.72,2.01 c -0.82,0.16 -14.2,11.99 -29.06,12.68 -2.66,0 -5.64,-0.55 -8.46,-2.17 l -135.43,-78.16 c -2.09,-1.21 -4.16,-2.41 -6.23,-3.6 0,2.41 0,4.79 0,7.19 v 284.02 c -0.89,11.39 -9.1,16.12 -15.17,20.51 -6.43,4.1 -12.42,6.62 -12.7,6.72 l -3.14,1.37 -3.15,-1.37 c -0.23,-0.12 -6.21,-2.62 -12.54,-6.72 -5.97,-4.35 -14.19,-9.18 -15,-20.51 v -284.02 c 0,-2.42 0,-4.82 0,-7.23 -2.07,1.2 -4.14,2.39 -6.25,3.6 l -135.41,78.2 c -2.81,1.62 -5.82,2.15 -8.47,2.15 -14.85,-0.67 -28.24,-12.5 -29.05,-12.62 l -2.71,-2.05 -0.41,-3.38 c -0.04,-0.25 -0.59,-4.53 -0.59,-10.15 0.04,-4.13 0.26,-8.99 1.43,-13.79 1.21,-4.65 3.16,-10.04 8.96,-13.58 l 135.41,-78.18 c 2.09,-1.21 4.16,-2.42 6.25,-3.61 -3.96,-2.29 -6.25,-3.62 -6.25,-3.62 l -135.44,-78.18 c -5.77,-3.5 -7.72,-8.91 -8.93,-13.58 -1.15,-4.8 -1.43,-9.62 -1.43,-13.76 0,-5.65 0.55,-9.93 0.59,-10.18 l 0.41,-3.34 2.71,-2.09 c 0.81,-0.12 14.2,-11.91 29.05,-12.58 h 0.11 c 2.62,0 5.55,0.51 8.36,2.11 l 135.41,78.16 h 0.02 c 0,0 2.29,1.33 6.23,3.6 0,-4.55 0,-7.19 0,-7.19 v -156.39 c 0.86,-11.36 9.11,-16.11 15.18,-20.49 6.39,-4.12 12.42,-6.6 12.68,-6.71 l 3.12,-1.33 3.15,1.33 c 0.23,0.11 6.21,2.59 12.55,6.71 6,4.38 14.18,9.19 15,20.49 l 0.02,156.39 h -0.02 c 0,0 0,2.66 0,7.23 3.97,-2.29 6.25,-3.6 6.25,-3.6" /><path
             id="path78"
             style="fill:#ffffff;fill-opacity:1;fill-rule:nonzero;stroke:none"
             d="m 332.617,1731.35 c 29.551,79.49 61.094,155.56 94.668,228.18 33.594,72.64 50.371,112.17 50.371,118.77 0,19.71 -17.859,29.55 -53.652,29.55 -32.832,0 -56.68,-28.96 -79.18,-56.37 -21.797,-26.52 -52.187,-66.21 -86.465,-123.12 C 201.445,1834.9 153.613,1741.7 114.961,1648.69 76.2305,1555.66 47.4805,1461.15 28.4961,1365.21 9.47266,1269.24 0,1166.13 0,1055.97 0,944.352 9.84375,840.352 29.6094,744.059 49.3164,647.691 77.8906,554.84 115.488,465.43 153.066,376.031 200.684,283.18 258.359,186.91 293.398,130.66 322.188,89.8594 344.824,64.2813 367.449,38.75 390.449,5.21094 424.004,5.21094 c 35.793,0 53.652,9.84766 53.652,29.55076 0,5.8203 -15.871,42.8594 -47.644,111.0783 -31.719,68.199 -56.555,145.39 -88.301,231.5 -31.777,86.058 -66.906,187.91 -91.711,305.332 -24.844,117.539 -37.207,241.976 -37.207,373.298 0,132.78 12.551,258.7 37.812,377.62 25.079,118.93 52.442,218.19 82.012,297.76" /><path
             id="path80"
             style="fill:#ffffff;fill-opacity:1;fill-rule:nonzero;stroke:none"
             d="m 1778.54,2.85156 h 24.04 l 33.55,190.85944 h -24.08 L 1778.54,2.85156" /><path
             id="path82"
             style="fill:#ffffff;fill-opacity:1;fill-rule:nonzero;stroke:none"
             d="m 2021.56,145.27 c -16.64,0 -45.27,-11.168 -59.04,-20.918 l 1.7,19.769 -20.65,-3.441 -24.31,-137.82844 h 23.47 l 17.5,99.13644 c 17.17,10.594 38.66,20.922 52.72,20.922 6.85,0 9.73,-1.988 9.73,-7.738 0,-1.133 -0.28,-3.121 -0.59,-4.84 L 2003.2,2.85156 h 23.48 L 2045.33,108.57 c 0.84,4.59 1.15,8.91 1.15,12.032 0,15.218 -7.46,24.668 -24.92,24.668" /><path
             id="path84"
             style="fill:#ffffff;fill-opacity:1;fill-rule:nonzero;stroke:none"
             d="m 2139.06,2.85156 h 23.48 L 2187.48,144.121 2163.4,140.68 2139.06,2.85156" /><path
             id="path86"
             style="fill:#ffffff;fill-opacity:1;fill-rule:nonzero;stroke:none"
             d="m 2167.4,163.891 24.06,3.16 6.33,35.801 -24.08,-3.442 -6.31,-35.519" /><path
             id="path88"
             style="fill:#ffffff;fill-opacity:1;fill-rule:nonzero;stroke:none"
             d="m 2339.08,179.941 -24.08,-3.16 -6.04,-34.383 h -24.62 l -3.44,-19.488 h 24.63 l -16.6,-94.2811 c -0.61,-3.0976 -0.61,-5.1406 -0.61,-6.2695 C 2288.32,9.73828 2296.35,0 2313.55,0 c 13.77,0 25.79,3.44141 37.86,9.46875 l -5.47,16.33205 c -9.75,-4.3008 -18.09,-6.0391 -25.8,-6.0391 -5.75,0 -8.03,2.0196 -8.03,6.0391 0,0.8398 0,1.4101 0.29,3.1211 l 16.64,93.9881 h 37.82 l 4,19.488 h -38.42 l 6.64,37.543" /><path
             id="path90"
             style="fill:#ffffff;fill-opacity:1;fill-rule:nonzero;stroke:none"
             d="m 2448.26,2.85156 h 23.48 L 2496.68,144.121 2472.62,140.68 2448.26,2.85156" /><path
             id="path92"
             style="fill:#ffffff;fill-opacity:1;fill-rule:nonzero;stroke:none"
             d="m 2476.64,163.891 24.08,3.16 6.27,35.801 -24.04,-3.442 -6.31,-35.519" /><path
             id="path94"
             style="fill:#ffffff;fill-opacity:1;fill-rule:nonzero;stroke:none"
             d="M 2670.63,44.6914 C 2654.57,30.082 2639.12,20.332 2621.6,20.332 c -8.55,0 -11.42,3.75 -11.42,10.3282 0,2.582 0.56,6.289 1.15,9.75 l 8.87,50.4101 c 4.86,27.4997 15.46,34.1017 36.97,34.1017 9.71,0 19.49,-1.453 26.91,-3.442 z M 2597.29,94 2587.54,38.6914 c -0.57,-3.75 -1.15,-7.4414 -1.15,-10.9023 0,-16.0274 8,-27.7891 29.49,-27.7891 17.79,0 36.7,6.03125 52.15,19.7617 l -0.84,-16.91014 h 19.49 L 2710.16,135.82 c -13.73,5.149 -32.93,9.45 -50.14,9.45 -44.14,0 -56.72,-17.481 -62.73,-51.27" /><path
             id="path96"
             style="fill:#ffffff;fill-opacity:1;fill-rule:nonzero;stroke:none"
             d="m 2863.22,179.941 -24.08,-3.16 -6.01,-34.383 h -24.65 l -3.44,-19.488 h 24.61 l -16.58,-94.2811 c -0.59,-3.0976 -0.59,-5.1406 -0.59,-6.2695 0,-12.62112 8.03,-22.3594 25.2,-22.3594 13.77,0 25.8,3.44141 37.85,9.46875 l -5.47,16.33205 c -9.71,-4.3008 -18.05,-6.0391 -25.76,-6.0391 -5.75,0 -8.03,2.0196 -8.03,6.0391 0,0.8398 0,1.4101 0.27,3.1211 l 16.59,93.9881 h 37.85 l 4.04,19.488 h -38.42 l 6.62,37.543" /><path
             id="path98"
             style="fill:#ffffff;fill-opacity:1;fill-rule:nonzero;stroke:none"
             d="m 2972.4,2.85156 h 23.48 L 3020.8,144.121 2996.76,140.68 2972.4,2.85156" /><path
             id="path100"
             style="fill:#ffffff;fill-opacity:1;fill-rule:nonzero;stroke:none"
             d="m 3000.76,163.891 24.06,3.16 6.29,35.801 -24.04,-3.442 -6.31,-35.519" /><path
             id="path102"
             style="fill:#ffffff;fill-opacity:1;fill-rule:nonzero;stroke:none"
             d="m 3197.91,140.68 c 1.42,-4.86 2.3,-11.461 2.3,-15.45 0,-7.46 -0.88,-12.339 -5.18,-21.21 L 3155.5,21.5 3137.73,143.551 3115.11,140.41 3136.87,2.85156 h 32.68 l 48.43,98.58944 c 4.59,9.141 4.87,16.879 4.87,24.36 0,6.847 -1.16,13.441 -2.31,18.32 l -22.63,-3.441" /><path
             id="path104"
             style="fill:#ffffff;fill-opacity:1;fill-rule:nonzero;stroke:none"
             d="m 3359.84,83.9414 c -13.48,-4 -18.07,-5.4297 -25.8,-7.7109 l 3.44,19.1797 c 4.02,22.6408 14.04,30.6598 35.8,30.6598 12.63,0 19.49,-5.718 19.49,-14.898 0,-11.4532 -9.73,-20.3517 -32.93,-27.2306 z m 15.17,61.3286 c -39.53,0 -55.33,-17.75 -61.62,-53.0317 l -8.3,-46.9883 c -0.86,-4.8398 -1.11,-9.4297 -1.11,-12.8711 C 3303.98,13.1797 3315.15,0 3343.22,0 c 23.2,0 41.56,7.17188 59.29,16.8906 l -5.15,17.4805 c -18.89,-9.1602 -36.41,-14.6094 -51,-14.6094 -14.92,0 -19.2,5.1602 -19.2,14.0703 0,1.1094 0,3.1172 0.57,6.2696 l 2.58,14.3281 c 12.07,3.75 17.5,5.1601 34.39,10.9023 39.26,13.1797 50.16,24.918 50.16,48.438 0,20.601 -16.62,31.5 -39.85,31.5" /><path
             id="path106"
             style="fill:#ffffff;fill-opacity:1;fill-rule:nonzero;stroke:none"
             d="m 3715.19,43.5703 c -15.82,-12.9101 -33.26,-23.2383 -49.88,-23.2383 -8.62,0 -11.17,3.75 -11.17,10.6289 0,2.5508 0.27,5.4297 0.87,8.8594 l 8.87,50.711 c 4.9,27.5197 12.01,34.3907 36.94,34.3907 7.73,0 20.64,-1.453 28.1,-3.442 z m 17.17,97.9887 c -9.45,2.293 -19.47,3.711 -28.95,3.711 -44.12,0 -56.42,-17.211 -62.46,-51.5786 l -9.72,-55 c -0.59,-3.4609 -0.9,-8.3008 -0.9,-10.9023 C 3630.33,11.7617 3638.08,0 3659.6,0 c 17.74,0 36.66,6.03125 52.7,19.7617 l -1.43,-16.91014 h 20.65 l 35.21,200.00044 -24.08,-3.442 -10.29,-57.851" /><path
             id="path108"
             style="fill:#ffffff;fill-opacity:1;fill-rule:nonzero;stroke:none"
             d="m 3862.5,129.219 h 18.04 l 12.33,70.191 h -18.03 l -12.34,-70.191" /><path
             id="path110"
             style="fill:#ffffff;fill-opacity:1;fill-rule:nonzero;stroke:none"
             d="m 4028.67,83.9414 c -13.46,-4 -18.05,-5.4297 -25.76,-7.7109 l 3.43,19.1797 c 4.03,22.6408 14.05,30.6598 35.82,30.6598 12.58,0 19.48,-5.718 19.48,-14.898 0,-11.4532 -9.73,-20.3517 -32.97,-27.2306 z m 15.21,61.3286 c -39.53,0 -55.31,-17.75 -61.62,-53.0317 l -8.3,-46.9883 c -0.88,-4.8398 -1.15,-9.4297 -1.15,-12.8711 C 3972.81,13.1797 3983.98,0 4012.08,0 c 23.21,0 41.53,7.17188 59.3,16.8906 l -5.15,17.4805 c -18.91,-9.1602 -36.41,-14.6094 -51.02,-14.6094 -14.9,0 -19.18,5.1602 -19.18,14.0703 0,1.1094 0,3.1172 0.53,6.2696 l 2.6,14.3281 c 12.07,3.75 17.5,5.1601 34.41,10.9023 39.22,13.1797 50.16,24.918 50.16,48.438 0,20.601 -16.65,31.5 -39.85,31.5" /><path
             id="path112"
             style="fill:#ffffff;fill-opacity:1;fill-rule:nonzero;stroke:none"
             d="m 4268.53,142.398 -41.23,-53.5894 -25.53,55.3124 -22.05,-3.441 31.8,-67.598 -57.91,-70.23044 h 26.4 l 41.57,49.58984 24.04,-49.58984 h 24.36 l -32.66,67.64064 58.44,71.9058 h -27.23" /><path
             id="path114"
             style="fill:#ffffff;fill-opacity:1;fill-rule:nonzero;stroke:none"
             d="m 4378.61,94 -9.16,-51.8711 c -0.88,-4.9101 -1.15,-8.8867 -1.15,-10.8789 0,-18.9492 11.17,-31.25 37.53,-31.25 18.05,0 34.95,4.30859 48.99,10.582 l -3.16,19.2188 c -14.01,-5.4492 -30.65,-9.4688 -43.27,-9.4688 -12.03,0 -16.62,3.4375 -16.62,12.3086 0,2.0313 0.31,4.0196 0.61,6.0508 l 9.14,52.1289 c 4.86,26.3907 13.46,34.1017 36.13,34.1017 9.14,0 20.04,-1.742 29.79,-4.84 l 5.15,18.879 c -10.02,4.008 -23.51,6.309 -33.81,6.309 -36.99,0 -53.28,-12.622 -60.17,-51.27" /><path
             id="path116"
             style="fill:#ffffff;fill-opacity:1;fill-rule:nonzero;stroke:none"
             d="m 4609.84,83.9414 c -13.46,-4 -18.05,-5.4297 -25.76,-7.7109 l 3.43,19.1797 c 4.01,22.6408 14.03,30.6598 35.82,30.6598 12.58,0 19.46,-5.718 19.46,-14.898 0,-11.4532 -9.71,-20.3517 -32.95,-27.2306 z m 15.21,61.3286 c -39.53,0 -55.35,-17.75 -61.62,-53.0317 l -8.3,-46.9883 c -0.88,-4.8398 -1.15,-9.4297 -1.15,-12.8711 C 4553.98,13.1797 4565.17,0 4593.24,0 c 23.2,0 41.52,7.17188 59.29,16.8906 l -5.15,17.4805 c -18.89,-9.1602 -36.39,-14.6094 -51,-14.6094 -14.9,0 -19.2,5.1602 -19.2,14.0703 0,1.1094 0,3.1172 0.59,6.2696 l 2.56,14.3281 c 12.07,3.75 17.5,5.1601 34.39,10.9023 39.28,13.1797 50.16,24.918 50.16,48.438 0,20.601 -16.62,31.5 -39.83,31.5" /><path
             id="path118"
             style="fill:#ffffff;fill-opacity:1;fill-rule:nonzero;stroke:none"
             d="m 4749.72,2.85156 h 23.5 L 4808.47,202.852 4784.39,199.41 4749.72,2.85156" /><path
             id="path120"
             style="fill:#ffffff;fill-opacity:1;fill-rule:nonzero;stroke:none"
             d="m 4886.99,2.85156 h 23.47 L 4945.72,202.852 4921.64,199.41 4886.99,2.85156" /><path
             id="path122"
             style="fill:#ffffff;fill-opacity:1;fill-rule:nonzero;stroke:none"
             d="m 5082.12,83.9414 c -13.45,-4 -18.04,-5.4297 -25.78,-7.7109 l 3.46,19.1797 c 3.96,22.6408 13.98,30.6598 35.78,30.6598 12.62,0 19.49,-5.718 19.49,-14.898 0,-11.4532 -9.76,-20.3517 -32.95,-27.2306 z m 15.18,61.3286 c -39.53,0 -55.31,-17.75 -61.58,-53.0317 L 5027.38,45.25 c -0.84,-4.8398 -1.12,-9.4297 -1.12,-12.8711 C 5026.26,13.1797 5037.44,0 5065.52,0 c 23.19,0 41.53,7.17188 59.28,16.8906 l -5.14,17.4805 c -18.92,-9.1602 -36.38,-14.6094 -50.99,-14.6094 -14.91,0 -19.2,5.1602 -19.2,14.0703 0,1.1094 0,3.1172 0.54,6.2696 l 2.6,14.3281 c 12.03,3.75 17.46,5.1601 34.4,10.9023 39.24,13.1797 50.13,24.918 50.13,48.438 0,20.601 -16.64,31.5 -39.84,31.5" /><path
             id="path124"
             style="fill:#ffffff;fill-opacity:1;fill-rule:nonzero;stroke:none"
             d="m 5324.27,145.27 c -16.6,0 -45.27,-11.168 -59.02,-20.918 l 1.72,19.769 -20.63,-3.441 -24.37,-137.82844 h 23.47 l 17.5,99.13644 c 17.21,10.594 38.7,20.922 52.76,20.922 6.85,0 9.72,-1.988 9.72,-7.738 0,-1.133 -0.31,-3.121 -0.58,-4.84 L 5305.91,2.85156 h 23.48 L 5348.04,108.57 c 0.86,4.59 1.15,8.91 1.15,12.032 0,15.218 -7.42,24.668 -24.92,24.668" /><path
             id="path126"
             style="fill:#ffffff;fill-opacity:1;fill-rule:nonzero;stroke:none"
             d="m 5452.1,94 -9.18,-51.8711 c -0.87,-4.9101 -1.15,-8.8867 -1.15,-10.8789 0,-18.9492 11.17,-31.25 37.56,-31.25 18.05,0 34.94,4.30859 48.95,10.582 l -3.11,19.2188 c -14.04,-5.4492 -30.66,-9.4688 -43.32,-9.4688 -12.01,0 -16.58,3.4375 -16.58,12.3086 0,2.0313 0.29,4.0196 0.58,6.0508 l 9.16,52.1289 c 4.85,26.3907 13.48,34.1017 36.12,34.1017 9.14,0 20.04,-1.742 29.78,-4.84 l 5.16,18.879 c -10.02,4.008 -23.48,6.309 -33.79,6.309 -36.97,0 -53.3,-12.622 -60.18,-51.27" /><path
             id="path128"
             style="fill:#ffffff;fill-opacity:1;fill-rule:nonzero;stroke:none"
             d="m 5683.35,83.9414 c -13.49,-4 -18.08,-5.4297 -25.8,-7.7109 l 3.44,19.1797 c 4.04,22.6408 14.06,30.6598 35.86,30.6598 12.58,0 19.45,-5.718 19.45,-14.898 0,-11.4532 -9.74,-20.3517 -32.95,-27.2306 z m 15.18,61.3286 c -39.53,0 -55.27,-17.75 -61.62,-53.0317 L 5628.65,45.25 c -0.88,-4.8398 -1.15,-9.4297 -1.15,-12.8711 C 5627.5,13.1797 5638.67,0 5666.73,0 c 23.23,0 41.55,7.17188 59.32,16.8906 l -5.18,17.4805 c -18.9,-9.1602 -36.36,-14.6094 -51.01,-14.6094 -14.9,0 -19.18,5.1602 -19.18,14.0703 0,1.1094 0,3.1172 0.6,6.2696 l 2.56,14.3281 c 12.03,3.75 17.48,5.1601 34.38,10.9023 39.26,13.1797 50.15,24.918 50.15,48.438 0,20.601 -16.6,31.5 -39.84,31.5" /></g></g></g></g></svg>